<svg class="animated" id="freepik_stories-completed" xmlns="http://www.w3.org/2000/svg" viewBox="0 0 500 500" version="1.1" xmlns:xlink="http://www.w3.org/1999/xlink" xmlns:svgjs="http://svgjs.com/svgjs"><style>svg#freepik_stories-completed:not(.animated) .animable {opacity: 0;}svg#freepik_stories-completed.animated #freepik--background-complete--inject-2 {animation: 1s 1 forwards cubic-bezier(.36,-0.01,.5,1.38) lightSpeedRight;animation-delay: 0s;}svg#freepik_stories-completed.animated #freepik--Shadow--inject-2 {animation: 1s 1 forwards cubic-bezier(.36,-0.01,.5,1.38) slideUp;animation-delay: 0s;}svg#freepik_stories-completed.animated #freepik--complete-list--inject-2 {animation: 1s 1 forwards cubic-bezier(.36,-0.01,.5,1.38) slideLeft;animation-delay: 0s;}svg#freepik_stories-completed.animated #freepik--Character--inject-2 {animation: 1s 1 forwards cubic-bezier(.36,-0.01,.5,1.38) slideDown;animation-delay: 0s;}            @keyframes lightSpeedRight {              from {                transform: translate3d(50%, 0, 0) skewX(-20deg);                opacity: 0;              }              60% {                transform: skewX(10deg);                opacity: 1;              }              80% {                transform: skewX(-2deg);              }              to {                opacity: 1;                transform: translate3d(0, 0, 0);              }            }                    @keyframes slideUp {                0% {                    opacity: 0;                    transform: translateY(30px);                }                100% {                    opacity: 1;                    transform: inherit;                }            }                    @keyframes slideLeft {                0% {                    opacity: 0;                    transform: translateX(-30px);                }                100% {                    opacity: 1;                    transform: translateX(0);                }            }                    @keyframes slideDown {                0% {                    opacity: 0;                    transform: translateY(-30px);                }                100% {                    opacity: 1;                    transform: translateY(0);                }            }        </style><g id="freepik--background-complete--inject-2" class="animable" style="transform-origin: 250px 226.165px;"><rect y="382.4" width="500" height="0.25" style="fill: rgb(235, 235, 235); transform-origin: 250px 382.525px;" id="el2f6p3g4sgsg" class="animable"></rect><rect x="52.46" y="391.92" width="33.12" height="0.25" style="fill: rgb(235, 235, 235); transform-origin: 69.02px 392.045px;" id="elikgb94y7fn" class="animable"></rect><rect x="171.14" y="392.05" width="53.86" height="0.25" style="fill: rgb(235, 235, 235); transform-origin: 198.07px 392.175px;" id="el9zboeejhysv" class="animable"></rect><rect x="105.77" y="397.08" width="19.19" height="0.25" style="fill: rgb(235, 235, 235); transform-origin: 115.365px 397.205px;" id="elywarm3rkl3d" class="animable"></rect><rect x="426.77" y="396.96" width="19.23" height="0.25" style="fill: rgb(235, 235, 235); transform-origin: 436.385px 397.085px;" id="elb4ymvx450yi" class="animable"></rect><rect x="387.57" y="396.96" width="30.29" height="0.25" style="fill: rgb(235, 235, 235); transform-origin: 402.715px 397.085px;" id="eldz1zp24if08" class="animable"></rect><rect x="328.33" y="395.31" width="42.56" height="0.25" style="fill: rgb(235, 235, 235); transform-origin: 349.61px 395.435px;" id="elxhab5imp1k9" class="animable"></rect><path d="M237,337.8H43.91a5.71,5.71,0,0,1-5.7-5.71V60.66A5.71,5.71,0,0,1,43.91,55H237a5.71,5.71,0,0,1,5.71,5.71V332.09A5.71,5.71,0,0,1,237,337.8ZM43.91,55.2a5.46,5.46,0,0,0-5.45,5.46V332.09a5.46,5.46,0,0,0,5.45,5.46H237a5.47,5.47,0,0,0,5.46-5.46V60.66A5.47,5.47,0,0,0,237,55.2Z" style="fill: rgb(235, 235, 235); transform-origin: 140.46px 196.4px;" id="elhkeref0hz5b" class="animable"></path><path d="M453.31,337.8H260.21a5.72,5.72,0,0,1-5.71-5.71V60.66A5.72,5.72,0,0,1,260.21,55h193.1A5.71,5.71,0,0,1,459,60.66V332.09A5.71,5.71,0,0,1,453.31,337.8ZM260.21,55.2a5.47,5.47,0,0,0-5.46,5.46V332.09a5.47,5.47,0,0,0,5.46,5.46h193.1a5.47,5.47,0,0,0,5.46-5.46V60.66a5.47,5.47,0,0,0-5.46-5.46Z" style="fill: rgb(235, 235, 235); transform-origin: 356.75px 196.4px;" id="elycdj4jb7b2b" class="animable"></path><rect x="303.78" y="91.02" width="116.1" height="138.62" style="fill: rgb(230, 230, 230); transform-origin: 361.83px 160.33px;" id="eluy6qwlow5j" class="animable"></rect><rect x="306.68" y="91.02" width="116.1" height="138.62" style="fill: rgb(245, 245, 245); transform-origin: 364.73px 160.33px;" id="eldu27adja01" class="animable"></rect><g id="ely46j4lkwu2m"><rect x="301.26" y="107.48" width="126.93" height="105.69" style="fill: rgb(255, 255, 255); transform-origin: 364.725px 160.325px; transform: rotate(90deg);" class="animable"></rect></g><g id="elh78d4s68rn9"><rect x="353.01" y="159.24" width="126.93" height="2.19" style="fill: rgb(230, 230, 230); transform-origin: 416.475px 160.335px; transform: rotate(90deg);" class="animable"></rect></g><rect x="308.83" y="193.72" width="111.79" height="7.85" style="fill: rgb(245, 245, 245); transform-origin: 364.725px 197.645px;" id="ellr0vkzz0g1" class="animable"></rect><path d="M428.45,81.35H298.11a.8.8,0,0,0-.8.8h0a.8.8,0,0,0,.8.8H428.45a.8.8,0,0,0,.8-.8h0A.8.8,0,0,0,428.45,81.35Z" style="fill: rgb(230, 230, 230); transform-origin: 363.28px 82.15px;" id="elcevukgm9g0a" class="animable"></path><circle cx="429.25" cy="82.15" r="4" style="fill: rgb(230, 230, 230); transform-origin: 429.25px 82.15px;" id="elrwicbne8l1" class="animable"></circle><path d="M304.86,86.63h0a1.08,1.08,0,0,1-1.08-1.08V83.23a1.09,1.09,0,0,1,1.08-1.08h0a1.08,1.08,0,0,1,1.08,1.08v2.32A1.08,1.08,0,0,1,304.86,86.63Z" style="fill: rgb(230, 230, 230); transform-origin: 304.86px 84.39px;" id="el56f08j0hciu" class="animable"></path><path d="M416.37,86.63h0a1.08,1.08,0,0,1-1.08-1.08V83.23a1.09,1.09,0,0,1,1.08-1.08h0a1.08,1.08,0,0,1,1.08,1.08v2.32A1.08,1.08,0,0,1,416.37,86.63Z" style="fill: rgb(230, 230, 230); transform-origin: 416.37px 84.39px;" id="el07zuny7vy80m" class="animable"></path><g id="el0mtll3secksj"><rect x="308.83" y="82.15" width="119.36" height="58.22" style="fill: rgb(224, 224, 224); opacity: 0.5; transform-origin: 368.51px 111.26px;" class="animable"></rect></g><circle cx="317.74" cy="82.15" r="4" style="fill: rgb(230, 230, 230); transform-origin: 317.74px 82.15px;" id="elif4zfn3rb4" class="animable"></circle><polygon points="89.71 244.53 47.36 244.53 51.11 194.96 85.96 194.96 89.71 244.53" style="fill: rgb(235, 235, 235); transform-origin: 68.535px 219.745px;" id="elpvgfz48fehk" class="animable"></polygon><polygon points="80.42 244.53 73.14 244.53 71.59 194.96 78.31 194.96 80.42 244.53" style="fill: rgb(245, 245, 245); transform-origin: 76.005px 219.745px;" id="elx0sjgtaq8xh" class="animable"></polygon><rect x="66.42" y="244.53" width="4.24" height="137.87" style="fill: rgb(240, 240, 240); transform-origin: 68.54px 313.465px;" id="elwmkg8of769s" class="animable"></rect><rect x="64.12" y="264.84" width="8.84" height="16.05" rx="2.82" style="fill: rgb(240, 240, 240); transform-origin: 68.54px 272.865px;" id="el09pweqzztsjo" class="animable"></rect><rect x="64.12" y="290.56" width="8.84" height="16.05" rx="2.82" style="fill: rgb(240, 240, 240); transform-origin: 68.54px 298.585px;" id="el0sz9y16on49" class="animable"></rect><path d="M75.24,382.4H61.83a2.86,2.86,0,0,1,2.86-2.86h7.69a2.86,2.86,0,0,1,2.86,2.86Z" style="fill: rgb(240, 240, 240); transform-origin: 68.535px 380.97px;" id="elyj4f3hft8c" class="animable"></path><rect x="66.42" y="244.53" width="4.24" height="2.59" style="fill: rgb(224, 224, 224); transform-origin: 68.54px 245.825px;" id="elttzji7m1yk" class="animable"></rect><g id="el9w3reqezxld"><rect x="96.32" y="86.04" width="117.04" height="117.36" style="fill: rgb(240, 240, 240); transform-origin: 154.84px 144.72px; transform: rotate(180deg);" class="animable"></rect></g><rect x="94.29" y="86.04" width="2.02" height="117.36" style="fill: rgb(224, 224, 224); transform-origin: 95.3px 144.72px;" id="el27ry4ucsxjl" class="animable"></rect><g id="el3075895cib8"><rect x="106.65" y="93.46" width="96.37" height="102.53" style="fill: rgb(250, 250, 250); transform-origin: 154.835px 144.725px; transform: rotate(180deg);" class="animable"></rect></g><g id="el8l0obyup2n2"><rect x="128" y="116.18" width="53.66" height="57.09" rx="21.28" style="fill: rgb(245, 245, 245); transform-origin: 154.83px 144.725px; transform: rotate(180deg);" class="animable"></rect></g><rect x="362.97" y="247.44" width="44.55" height="134.95" style="fill: rgb(230, 230, 230); transform-origin: 385.245px 314.915px;" id="elabxzk23lgg9" class="animable"></rect><polygon points="385.77 382.4 407.52 382.4 407.52 363.77 362.97 363.77 385.77 382.4" style="fill: rgb(250, 250, 250); transform-origin: 385.245px 373.085px;" id="el9vds41nv2hn" class="animable"></polygon><rect x="185.3" y="247.44" width="44.55" height="134.95" style="fill: rgb(230, 230, 230); transform-origin: 207.575px 314.915px;" id="elsimo7hudpll" class="animable"></rect><rect x="210.87" y="247.44" width="196.64" height="128.54" style="fill: rgb(250, 250, 250); transform-origin: 309.19px 311.71px;" id="elf8c7hxw5qp9" class="animable"></rect><polygon points="232.62 382.4 210.88 382.4 210.88 363.77 255.43 363.77 232.62 382.4" style="fill: rgb(250, 250, 250); transform-origin: 233.155px 373.085px;" id="elemtj89ocz2v" class="animable"></polygon><rect x="227.75" y="295.34" width="162.9" height="32.17" style="fill: rgb(240, 240, 240); transform-origin: 309.2px 311.425px;" id="elotu9hrm5q5" class="animable"></rect><rect x="227.75" y="334.39" width="162.9" height="32.17" style="fill: rgb(240, 240, 240); transform-origin: 309.2px 350.475px;" id="elwoa5fxyldm" class="animable"></rect><path d="M351.85,298.78H266.54a6.22,6.22,0,0,1-6.22-6.22h97.75A6.21,6.21,0,0,1,351.85,298.78Z" style="fill: rgb(250, 250, 250); transform-origin: 309.195px 295.67px;" id="elu9mr9b8vli" class="animable"></path><rect x="227.75" y="256.3" width="162.9" height="32.17" style="fill: rgb(240, 240, 240); transform-origin: 309.2px 272.385px;" id="elm9t9yitxwhh" class="animable"></rect><path d="M351.85,259.74H266.54a6.23,6.23,0,0,1-6.22-6.23h97.75A6.22,6.22,0,0,1,351.85,259.74Z" style="fill: rgb(250, 250, 250); transform-origin: 309.195px 256.625px;" id="el9s31nu2tfg7" class="animable"></path><path d="M351.85,337.83H266.54a6.23,6.23,0,0,1-6.22-6.23h97.75A6.22,6.22,0,0,1,351.85,337.83Z" style="fill: rgb(250, 250, 250); transform-origin: 309.195px 334.715px;" id="eldtzinzh0wc" class="animable"></path></g><g id="freepik--Shadow--inject-2" class="animable" style="transform-origin: 250px 416.24px;"><ellipse id="freepik--path--inject-2" cx="250" cy="416.24" rx="193.89" ry="11.32" style="fill: rgb(245, 245, 245); transform-origin: 250px 416.24px;" class="animable"></ellipse></g><g id="freepik--complete-list--inject-2" class="animable" style="transform-origin: 169px 243.549px;"><path d="M75.55,217.49H224.79a17.64,17.64,0,0,1-17.38-16.42l-2.64-44.48H55.54l2.63,44.48A17.64,17.64,0,0,0,75.55,217.49Z" style="fill: rgb(255, 98, 103); transform-origin: 140.165px 187.04px;" id="elpvavmg06b4" class="animable"></path><g id="el2lgak3h944j"><path d="M75.55,217.49H224.79a17.64,17.64,0,0,1-17.38-16.42l-2.64-44.48H55.54l2.63,44.48A17.64,17.64,0,0,0,75.55,217.49Z" style="fill: rgb(255, 255, 255); opacity: 0.6; transform-origin: 140.165px 187.04px;" class="animable"></path></g><path d="M235.85,127H103a15.3,15.3,0,0,0-15.44,16.41L91,201.08a15.28,15.28,0,0,1-15.44,16.41H224.79a15.28,15.28,0,0,0,15.44-16.41l.37,6.24-3.78-63.87A15.28,15.28,0,0,1,252.26,127Z" style="fill: rgb(255, 98, 103); transform-origin: 163.91px 172.245px;" id="elhrp3eopb7j" class="animable"></path><path d="M252.26,127H103a17.62,17.62,0,0,1,17.38,16.41L133.23,360.1H282.46L269.64,143.45A17.64,17.64,0,0,0,252.26,127Z" style="fill: rgb(255, 98, 103); transform-origin: 192.73px 243.55px;" id="elqme4vfunlhh" class="animable"></path><g id="elndazu7if6wq"><path d="M252.26,127H103a17.62,17.62,0,0,1,17.38,16.41L133.23,360.1H282.46L269.64,143.45A17.64,17.64,0,0,0,252.26,127Z" style="fill: rgb(255, 255, 255); opacity: 0.8; transform-origin: 192.73px 243.55px;" class="animable"></path></g><path d="M170.66,188.68H143L141.33,161H169ZM146,185.42h21.17L166,164.25H144.79Z" style="fill: rgb(255, 255, 255); transform-origin: 155.995px 174.84px;" id="ely3vbzugn02" class="animable"></path><path d="M174.52,253.79H146.83l-1.64-27.69h27.69Zm-24.63-3.26h21.17l-1.25-21.17H148.64Z" style="fill: rgb(255, 255, 255); transform-origin: 159.855px 239.945px;" id="ele0cfgis54mr" class="animable"></path><path d="M178.37,318.9H150.68L149,291.21h27.69Zm-24.62-3.26h21.17l-1.26-21.17H152.49Z" style="fill: rgb(255, 255, 255); transform-origin: 163.685px 305.055px;" id="el0v3rl1o7ft9n" class="animable"></path><rect x="184.18" y="160.99" width="63.66" height="3.26" style="fill: rgb(255, 255, 255); transform-origin: 216.01px 162.62px;" id="elxwdhklxtw5" class="animable"></rect><rect x="184.9" y="173.21" width="56.18" height="3.26" style="fill: rgb(255, 255, 255); transform-origin: 212.99px 174.84px;" id="el7fw8557ts3j" class="animable"></rect><rect x="185.62" y="185.42" width="63.66" height="3.26" style="fill: rgb(255, 255, 255); transform-origin: 217.45px 187.05px;" id="elu24nsier5g" class="animable"></rect><rect x="188.03" y="226.1" width="63.66" height="3.26" style="fill: rgb(255, 255, 255); transform-origin: 219.86px 227.73px;" id="elvwjmv4g36hl" class="animable"></rect><rect x="188.75" y="238.32" width="37.37" height="3.26" style="fill: rgb(255, 255, 255); transform-origin: 207.435px 239.95px;" id="elsp0u71jutm" class="animable"></rect><rect x="189.48" y="250.53" width="19.29" height="3.26" style="fill: rgb(255, 255, 255); transform-origin: 199.125px 252.16px;" id="elnyn492w19c" class="animable"></rect><rect x="221.31" y="250.53" width="31.83" height="3.26" style="fill: rgb(255, 255, 255); transform-origin: 237.225px 252.16px;" id="eldjuyx9lrhdb" class="animable"></rect><rect x="191.88" y="291.21" width="63.66" height="3.26" style="fill: rgb(255, 255, 255); transform-origin: 223.71px 292.84px;" id="elwra4te32ong" class="animable"></rect><rect x="192.61" y="303.43" width="63.66" height="3.26" style="fill: rgb(255, 255, 255); transform-origin: 224.44px 305.06px;" id="elf5vrpjpwuq" class="animable"></rect><rect x="193.33" y="315.64" width="35.21" height="3.26" style="fill: rgb(255, 255, 255); transform-origin: 210.935px 317.27px;" id="el4oip98kjghl" class="animable"></rect><path d="M158.63,182.16a2.7,2.7,0,0,1-1.86-.74L150,175a2.71,2.71,0,1,1,3.73-3.94l4.82,4.55,10.85-11.53a2.71,2.71,0,0,1,3.95,3.72l-12.71,13.51a2.67,2.67,0,0,1-1.9.85Z" style="fill: rgb(255, 98, 103); transform-origin: 161.62px 172.694px;" id="elqv604kkq2r9" class="animable"></path><path d="M162.49,247.27a2.68,2.68,0,0,1-1.86-.74l-6.8-6.42a2.71,2.71,0,1,1,3.72-3.94l4.83,4.55,10.84-11.53a2.71,2.71,0,0,1,3.95,3.72l-12.71,13.51a2.66,2.66,0,0,1-1.89.85Z" style="fill: rgb(255, 98, 103); transform-origin: 165.422px 237.804px;" id="elmruy9fmvr6" class="animable"></path><path d="M166.34,312.39a2.69,2.69,0,0,1-1.86-.75l-6.8-6.42a2.71,2.71,0,1,1,3.72-3.94l4.83,4.55,10.85-11.53A2.71,2.71,0,0,1,181,298l-12.71,13.51a2.7,2.7,0,0,1-1.9.85Z" style="fill: rgb(255, 98, 103); transform-origin: 169.171px 303.018px;" id="elysng0nu2m5" class="animable"></path></g><g id="freepik--Character--inject-2" class="animable" style="transform-origin: 339.628px 263.076px;"><g id="eln76c6u68x8p"><rect x="319.04" y="157.97" width="20" height="242.81" style="fill: rgb(255, 98, 103); transform-origin: 329.04px 279.375px; transform: rotate(-13.81deg);" class="animable"></rect></g><g id="elilpob2gg3g"><rect x="332.74" y="156.31" width="6.09" height="242.81" style="opacity: 0.2; transform-origin: 335.785px 277.715px; transform: rotate(-13.81deg);" class="animable"></rect></g><g id="el025dd7x6r1je"><rect x="350.55" y="400.02" width="20" height="15.06" rx="2.25" style="fill: rgb(255, 98, 103); transform-origin: 360.55px 407.55px; transform: rotate(-13.81deg);" class="animable"></rect></g><g id="el14mvwomd06i"><rect x="350.55" y="400.02" width="20" height="15.06" rx="2.25" style="fill: rgb(255, 255, 255); opacity: 0.7; transform-origin: 360.55px 407.55px; transform: rotate(-13.81deg);" class="animable"></rect></g><g id="elznq6935xlgl"><rect x="346.9" y="393.6" width="23.17" height="11.08" rx="2.08" style="fill: rgb(224, 224, 224); transform-origin: 358.485px 399.14px; transform: rotate(-13.81deg);" class="animable"></rect></g><polygon points="309.76 159.1 290.34 163.88 292.62 147.63 294.08 137.21 300.21 145.76 309.76 159.1" style="fill: rgb(224, 224, 224); transform-origin: 300.05px 150.545px;" id="el4anu9a6djdj" class="animable"></polygon><polygon points="300.21 145.76 292.62 147.63 294.08 137.21 300.21 145.76" style="fill: rgb(255, 98, 103); transform-origin: 296.415px 142.42px;" id="el8hj7s59dzv7" class="animable"></polygon><path d="M359.92,143.68c-.1,6-1.26,17.31,1.9,21A43.83,43.83,0,0,0,342.93,177c-4.33-7.08,1.32-10.89,1.32-10.89,6.23-2,5.85-6.69,4.54-11Z" style="fill: rgb(255, 181, 115); transform-origin: 351.558px 160.34px;" id="elwwt1tmhsvd" class="animable"></path><path d="M341.09,170.89c1.65-6.13-3-7,4.75-10,6.06-2.4,17.51-2.74,20.2-.81,1.49,1.08-.56,4.86-.56,4.86Z" style="fill: rgb(38, 50, 56); transform-origin: 353.836px 164.861px;" id="elq5xbbnlmr5" class="animable"></path><path d="M374.68,169.57c.45.72.77,1.27,1.13,1.9s.66,1.21,1,1.82c.64,1.22,1.24,2.44,1.82,3.68,1.16,2.47,2.17,5,3.1,7.56a82,82,0,0,1,4,16l.26,2.06c.05.29.09.81.12,1.26s0,.86,0,1.26a37.36,37.36,0,0,1-.33,4.41c-.35,2.76-.88,5.37-1.46,8a129.42,129.42,0,0,1-4.47,15.13,2.93,2.93,0,0,1-5.68-1.23v0c.4-5.08.87-10.2,1.24-15.2.18-2.5.32-5,.36-7.36,0-1.17,0-2.33-.11-3.3l-.09-.67-.13-.65-.37-1.74a91,91,0,0,0-4.3-13.74c-.9-2.24-1.87-4.46-2.89-6.65q-.76-1.65-1.59-3.24l-.84-1.58-.79-1.45-.14-.26a5.87,5.87,0,0,1,10.15-5.89Z" style="fill: rgb(255, 181, 115); transform-origin: 374.966px 200.754px;" id="elr55xv2mu02h" class="animable"></path><path d="M372,234.67l.83-1.38,2.34-3.94,4.29,2.43c.89,4-1.83,7.54-1.83,7.54l-1.21,1a2.15,2.15,0,0,1-2.94-.11l-.93-.86A3.93,3.93,0,0,1,372,234.67Z" style="fill: rgb(255, 181, 115); transform-origin: 375.554px 235.099px;" id="eliagtalsp73" class="animable"></path><path d="M315,232.63l-.69-2.5a2.33,2.33,0,0,0-2.82-1.64l-3,.77-1.85.46a4.63,4.63,0,0,0-3.46,4.37l0,1.49a2.56,2.56,0,0,0,2.37,2.57l1.85.18a12.46,12.46,0,0,0,7.22-3.88A2,2,0,0,0,315,232.63Z" style="fill: rgb(255, 181, 115); transform-origin: 309.128px 233.374px;" id="elxhg8dklljbl" class="animable"></path><path d="M369.68,165.17c5.25,2.33,10.06,7.88,14,18.15-1.26,4.23-14.27,11.16-14.27,11.16S353.18,160.07,369.68,165.17Z" style="fill: rgb(255, 98, 103); transform-origin: 372.978px 179.567px;" id="eloom3nxu143" class="animable"></path><path d="M326.25,178.32c.05,3.81-6.26,12.64,1,17.76.63,7.71,1.48,15.3,3.13,27.95h38.83c-3.69-14-.5-23.4,5.42-48a9.47,9.47,0,0,0-8.24-11.77c-1.55-.15-3.19-.28-4.86-.37a123.44,123.44,0,0,0-17.64,0c-1.91.17-3.88.41-5.77.67A13.87,13.87,0,0,0,326.25,178.32Z" style="fill: rgb(255, 98, 103); transform-origin: 349.34px 193.802px;" id="els03c9h0a35c" class="animable"></path><path d="M339.11,174.61c.09,2.86,0,5.6,0,8.4s-.18,5.57-.36,8.37a135,135,0,0,1-2,16.92c-.12.71-.31,1.45-.48,2.17s-.32,1.44-.55,2.2l-.32,1.11-.17.56a6.18,6.18,0,0,1-.24.74,11.93,11.93,0,0,1-1.7,3,33,33,0,0,1-3.19,3.57c-1.05,1.05-2.12,2-3.2,3a113.3,113.3,0,0,1-13.52,10,2.94,2.94,0,0,1-3.79-4.41l0,0c3.57-4.07,7.25-8.11,10.68-12.11.84-1,1.66-2,2.44-3a24.35,24.35,0,0,0,2-2.81c.24-.37.39-.82.26-.57s0-.13,0-.24l.09-.44.19-.87c.14-.56.22-1.19.32-1.8s.22-1.22.28-1.86c.68-5.05,1-10.37,1.19-15.69s.31-10.74.34-16v0a5.87,5.87,0,0,1,11.74-.13Z" style="fill: rgb(255, 181, 115); transform-origin: 324.013px 202.008px;" id="el6n4wt3qus6o" class="animable"></path><path d="M334.83,165.45c-4.79,2.38-9.54,7-11.51,17.58,1.25,4.19,18.37,12.26,18.37,12.26S351.22,159.33,334.83,165.45Z" style="fill: rgb(255, 98, 103); transform-origin: 333.882px 180.019px;" id="ele896hkg18vj" class="animable"></path><path d="M335.88,139.86c.13.75-.17,1.45-.67,1.54s-1-.43-1.13-1.19.18-1.45.67-1.54S335.76,139.1,335.88,139.86Z" style="fill: rgb(38, 50, 56); transform-origin: 334.98px 140.035px;" id="elc22vxjztc75" class="animable"></path><path d="M335,138.66l-1.91-.16S334.24,139.73,335,138.66Z" style="fill: rgb(38, 50, 56); transform-origin: 334.045px 138.799px;" id="elwafex5982e" class="animable"></path><path d="M335.7,140.7a21.18,21.18,0,0,1-1.91,5.36,3.31,3.31,0,0,0,2.8,0Z" style="fill: rgb(237, 137, 62); transform-origin: 335.19px 143.535px;" id="el70aboch81yu" class="animable"></path><path d="M333.9,134.7a.47.47,0,0,1-.31-.12.45.45,0,0,1,0-.64,4.6,4.6,0,0,1,3.91-1.48.44.44,0,0,1,.35.52.47.47,0,0,1-.54.37,3.69,3.69,0,0,0-3.08,1.21A.47.47,0,0,1,333.9,134.7Z" style="fill: rgb(38, 50, 56); transform-origin: 335.658px 133.566px;" id="el9rdwjlsv9sh" class="animable"></path><path d="M360.63,132.41c1,9.4,1.6,13.36-2.23,19-5.77,8.55-17.37,8-21.1-.83-3.36-8-4.41-22,3.95-27.46A12.42,12.42,0,0,1,360.63,132.41Z" style="fill: rgb(255, 181, 115); transform-origin: 348.096px 139.242px;" id="elu3jlrwe8zl9" class="animable"></path><path d="M343.53,139.28c-6-1.06-7.45-7.95-5.23-10.95-10.11.45-16.92-10.86-6-17.31s20.56,3.54,19.78,7.31c13.45-1.22,21.33,9.85,14,18.08,9.67,1.57,24.15,12.47,13.52,23.92,14.37,2.11,15.93,47.11-23.19,39.11C315.17,191,351,155.11,351,155.11S340.55,152.17,343.53,139.28Z" style="fill: rgb(38, 50, 56); transform-origin: 357.821px 154.647px;" id="ela1fkoju0zz" class="animable"></path><path d="M381.84,163.26l-.85-.52c3.63-5.9,4.23-11.27,1.78-16-3.15-6-10.79-9.54-16.72-9.88l.06-1c6.2.35,14.23,4,17.55,10.41C386.24,151.27,385.61,157.13,381.84,163.26Z" style="fill: rgb(38, 50, 56); transform-origin: 375.635px 149.56px;" id="elezri6o2tt0q" class="animable"></path><path d="M370.47,137.42c3.45-.57,1.82-6.2-.72-7.69s-14.71.93-13.37,4.81S365.84,138.19,370.47,137.42Z" style="fill: rgb(255, 255, 255); transform-origin: 364.358px 133.582px;" id="el7zetqg37ley" class="animable"></path><path d="M371.09,136c3.44-.66,2.06-5.22-.52-6.65s-13.21-.37-11.76,3.46S366.49,136.91,371.09,136Z" style="fill: rgb(255, 98, 103); transform-origin: 365.908px 132.588px;" id="elh10p3nqbotw" class="animable"></path><path d="M335.05,129.47a10.35,10.35,0,0,1-6.33-2.27c-2.87-2.23-4.45-5.57-4-8.51.27-1.87,1.44-4.44,5.52-6.07l.37.93c-2.88,1.15-4.57,3-4.9,5.28-.36,2.6,1.07,5.57,3.66,7.58a8.8,8.8,0,0,0,8.78,1.46l.38.93A9,9,0,0,1,335.05,129.47Z" style="fill: rgb(38, 50, 56); transform-origin: 331.587px 121.045px;" id="elrz5qar6fpar" class="animable"></path><path d="M345.9,140.38c-.45,2.46-.59,3.51-1.87,4.66a2.71,2.71,0,0,1-4.73-1.77c-.2-2.26.57-5.9,2.86-6.66S346.35,137.93,345.9,140.38Z" style="fill: rgb(255, 181, 115); transform-origin: 342.618px 141.197px;" id="ely2krs6wvv3q" class="animable"></path><path d="M340.38,148.21l-.81-1.45a.39.39,0,0,1,0-.39l.81-1.44a.4.4,0,0,1,.7,0l.81,1.44a.39.39,0,0,1,0,.39l-.81,1.45A.4.4,0,0,1,340.38,148.21Z" style="fill: rgb(255, 255, 255); transform-origin: 340.73px 146.57px;" id="elhmiurbtcztl" class="animable"></path><path d="M330.4,224s-1.37,50.14-3.2,83.12c-1.94,30.27-4.43,101.06-4.43,101.06l7.65.4s16.92-59.57,16.21-95.56c19.86-50.34,12.72-87.51,12.72-87.51Z" style="fill: rgb(255, 181, 115); transform-origin: 341.685px 316.29px;" id="elh2glrncr4h4" class="animable"></path><path d="M323.34,405a1,1,0,0,0-1.17,0,21.42,21.42,0,0,1-12.69,4.22c-5.08.22-3.83,3,3.44,3.93,8.55,1.06,10.38,2.82,13.14,3.51s4.95-1.41,4.9-7.21a1,1,0,0,0-.64-.91A33.32,33.32,0,0,1,323.34,405Z" style="fill: rgb(38, 50, 56); transform-origin: 318.681px 410.799px;" id="elabplefk1w1k" class="animable"></path><path d="M340.55,224s14,59.34,22.11,87c8.53,29,15.29,95.18,15.24,97.37h6.62s8.55-53.64-2-97.4c-1-71-13.24-86.92-13.24-86.92Z" style="fill: rgb(255, 181, 115); transform-origin: 364.17px 316.185px;" id="elal5ffo31qad" class="animable"></path><path d="M377.73,406a.86.86,0,0,0-1,.26c-1.71,2.22-2.95,4.68-8,6.84-4.18,1.78-1.87,4.22,4.67,3.33,7.69-1.06,7.8.19,10.39.19s3.81-2.58,1.92-8.19a1.06,1.06,0,0,0-.84-.72A30.39,30.39,0,0,1,377.73,406Z" style="fill: rgb(38, 50, 56); transform-origin: 376.628px 411.278px;" id="elwtmce4g2cnn" class="animable"></path><path d="M330.4,224s-6.6,43.94-5.67,104a212.09,212.09,0,0,0,61.57-9.5s.3-77.82-17.07-94.47C359.2,221.33,330.63,223.12,330.4,224Z" style="fill: rgb(38, 50, 56); transform-origin: 355.47px 275.3px;" id="eldfrpc5w1bnt" class="animable"></path><g id="eluu6p9y4jcp"><path d="M331.17,319.47a.25.25,0,0,1-.25-.24c-1.87-38.35,2.67-92.49,2.71-93a.24.24,0,0,1,.27-.23.25.25,0,0,1,.23.27c-.05.55-4.58,54.65-2.71,93a.24.24,0,0,1-.24.26Z" style="fill: rgb(255, 255, 255); opacity: 0.2; transform-origin: 332.3px 272.764px;" class="animable"></path></g><g id="el2r66haf2w1u"><polygon points="357.3 281.12 362.99 250.98 365.28 258.19 357.3 281.12" style="opacity: 0.2; transform-origin: 361.29px 266.05px;" class="animable"></polygon></g></g><defs>     <filter id="active" height="200%">         <feMorphology in="SourceAlpha" result="DILATED" operator="dilate" radius="2"></feMorphology>                <feFlood flood-color="#32DFEC" flood-opacity="1" result="PINK"></feFlood>        <feComposite in="PINK" in2="DILATED" operator="in" result="OUTLINE"></feComposite>        <feMerge>            <feMergeNode in="OUTLINE"></feMergeNode>            <feMergeNode in="SourceGraphic"></feMergeNode>        </feMerge>    </filter>    <filter id="hover" height="200%">        <feMorphology in="SourceAlpha" result="DILATED" operator="dilate" radius="2"></feMorphology>                <feFlood flood-color="#ff0000" flood-opacity="0.5" result="PINK"></feFlood>        <feComposite in="PINK" in2="DILATED" operator="in" result="OUTLINE"></feComposite>        <feMerge>            <feMergeNode in="OUTLINE"></feMergeNode>            <feMergeNode in="SourceGraphic"></feMergeNode>        </feMerge>            <feColorMatrix type="matrix" values="0   0   0   0   0                0   1   0   0   0                0   0   0   0   0                0   0   0   1   0 "></feColorMatrix>    </filter></defs></svg>